<svg xmlns:xlink="http://www.w3.org/1999/xlink" width="17" xmlns="http://www.w3.org/2000/svg" height="17" id="screenshot-247848f1-79b3-8060-8002-b14656d3bdd1" viewBox="0 0 17 17" style="-webkit-print-color-adjust: exact;" fill="none" version="1.1"><g id="shape-247848f1-79b3-8060-8002-b14656d3bdd1" width="1em" height="1em" rx="0" ry="0" style="fill: rgb(0, 0, 0);"><g id="shape-247848f1-79b3-8060-8002-b14656d3bdd8"><g class="fills" id="fills-247848f1-79b3-8060-8002-b14656d3bdd8"><path rx="0" ry="0" d="M14.344,5.047L8.610,5.047L6.718,3.156C6.569,3.006,6.367,2.921,6.155,2.922L2.656,2.922C2.216,2.922,1.859,3.279,1.859,3.719L1.859,13.322C1.860,13.739,2.198,14.077,2.615,14.078L14.403,14.078C14.810,14.078,15.140,13.748,15.141,13.340L15.141,5.844C15.141,5.404,14.784,5.047,14.344,5.047ZZM2.391,3.719C2.391,3.572,2.510,3.453,2.656,3.453L6.155,3.453C6.225,3.453,6.293,3.481,6.342,3.531L7.859,5.047L2.391,5.047ZM14.609,13.340C14.609,13.454,14.517,13.547,14.403,13.547L2.615,13.547C2.491,13.547,2.391,13.446,2.391,13.322L2.391,5.578L14.344,5.578C14.490,5.578,14.609,5.697,14.609,5.844Z" style="fill: rgb(129, 145, 245); fill-opacity: 1;"/></g></g></g></svg>