<svg width="56" height="71" viewBox="0 0 56 71" fill="none" xmlns="http://www.w3.org/2000/svg">
<path d="M31.125 0.34375C26.875 7.375 25.9493 17.3345 26.0781 26.125C26.0938 27.1943 26.4083 28.6943 26.7536 30.0347C27.4585 29.6785 28.2247 29.4941 29 29.4941C29.4038 29.4941 29.7969 29.5448 30.1763 29.638L31.125 0.34375ZM29 32.1309C27.2987 32.1309 25.9453 33.6235 25.9453 35.5C25.9453 37.3765 27.2987 38.8691 29 38.8691C30.7013 38.8691 32.0547 37.3765 32.0547 35.5C32.0547 33.6235 30.7013 32.1309 29 32.1309ZM34.4188 36.0908C34.2996 37.417 33.7844 38.6203 33.0067 39.5541L55.5375 55.1099C52.1415 47.5346 44.7845 41.6708 37.8177 37.3984C36.9722 36.8799 35.6416 36.4309 34.4188 36.0908ZM23.8076 37.3028L0.328972 51.0449C7.97499 51.589 16.2581 47.4937 23.0961 42.9751C23.9294 42.4246 24.9488 41.3731 25.8294 40.3721C24.8864 39.6218 24.1663 38.5488 23.8076 37.3028ZM31.2265 40.9751C30.5271 41.3251 29.768 41.506 29 41.5059C28.2321 41.506 27.473 41.3252 26.7735 40.9756L25.8125 70.6562H32.1875L31.2265 40.9751Z" fill="#3366CC"/>
</svg>
